<svg xmlns="http://www.w3.org/2000/svg" width="16" height="16" viewBox="1 1 22 22" stroke-width="2" stroke="context-fill" stroke-opacity="context-fill-opacity" fill="none" stroke-linecap="round" stroke-linejoin="round">
  <path stroke="none" d="M0 0h24v24H0z" fill="none"/>
  <path d="M11 19h-6a2 2 0 0 1 -2 -2v-10a2 2 0 0 1 2 -2h14a2 2 0 0 1 2 2v4" />
  <path d="M14 14m0 1a1 1 0 0 1 1 -1h5a1 1 0 0 1 1 1v3a1 1 0 0 1 -1 1h-5a1 1 0 0 1 -1 -1z" />
  <path d="M7 9l4 4" />
  <path d="M7 12v-3h3" />
</svg>


