<svg xmlns="http://www.w3.org/2000/svg" width="16" height="16" viewBox="1 1 22 22" stroke-width="2" stroke="context-fill" stroke-opacity="context-fill-opacity" fill="none" stroke-linecap="round" stroke-linejoin="round">
  <path stroke="none" d="M0 0h24v24H0z" fill="none"/>
  <path d="M15 8h.01" />
  <path d="M3 6a3 3 0 0 1 3 -3h12a3 3 0 0 1 3 3v12a3 3 0 0 1 -3 3h-12a3 3 0 0 1 -3 -3v-12z" />
  <path d="M3 16l5 -5c.928 -.893 2.072 -.893 3 0l5 5" />
  <path d="M14 14l1 -1c.928 -.893 2.072 -.893 3 0l3 3" />
</svg>


